<?xml version="1.0" encoding="UTF-8"?>
<svg id="Layer_1" data-name="Layer 1" xmlns="http://www.w3.org/2000/svg" viewBox="0 0 901.13 199.6">
  <defs>
    <style>
      .cls-1 {
        fill: #fefefe;
      }

      .cls-1, .cls-2, .cls-3, .cls-4, .cls-5, .cls-6, .cls-7, .cls-8 {
        stroke-width: 0px;
      }

      .cls-2 {
        fill: #c7c2cb;
      }

      .cls-3, .cls-6 {
        fill: #c3bfca;
      }

      .cls-4 {
        fill: #e3e3e3;
      }

      .cls-5 {
        fill: #fff;
      }

      .cls-6 {
        opacity: .79;
      }

      .cls-7 {
        fill: #e2e2e3;
      }

      .cls-8 {
        fill: #ded9e4;
      }
    </style>
  </defs>
  <g id="LOGO">
    <g id="LETTERING">
      <g>
        <path class="cls-5" d="M70.19,150.48c15.02,2.34,27.45.41,38.74-7.34,2.83-1.94,5.37-4.31,8.09-6.42,3.88-3.01,7.96-3.18,11.37.39,3.46,3.63,3.03,7.82-.38,11.31-7.49,7.68-16.42,13.12-26.68,16.33-13.97,4.36-27.96,4.52-41.78-.36-3.91-1.38-6.75-.7-10.12,1.43-7.1,4.49-14.44,8.64-21.87,12.56-2.82,1.49-6.12,2.23-9.3,2.87-11.83,2.39-20.22-5-17.86-16.77,1.47-7.35,3.96-15.23,8.35-21.11,7.81-10.47,8.66-20.26,6.18-33.15C5.82,62.78,54.44,21.42,100.39,36.62c5.19,1.72,8.75.95,13.2-1.9,7.54-4.83,15.6-8.89,23.65-12.82,2.82-1.38,6.27-1.89,9.47-2.02,9.95-.4,17.15,6.83,14.74,16.43-2.2,8.74-5.86,17.48-10.61,25.15-19.54,31.57-45.33,57.75-72.97,82.22-2.12,1.88-4.25,3.76-7.69,6.81ZM83.98,49.81c-25.01-.05-43.23,12.96-50.66,34.02-7.63,21.6-1.93,42.45,15.21,56.52,2.89,2.37,5.16,2.57,8.05.19,23.27-19.2,44.55-40.37,63.72-63.67,2.54-3.08,2.52-5.53-.09-8.55-10.37-12-23.37-18.25-36.23-18.5ZM123.94,46.75c3.63,4.22,6.65,7.73,10.26,11.93,3.97-7.36,7.57-14.05,11.18-20.74-.59-.57-1.18-1.14-1.77-1.72-6.74,3.61-13.49,7.22-19.67,10.53ZM38.88,154.17c-4.27-4.18-7.56-7.39-11.68-11.42-3.76,7.38-7.26,14.25-10.77,21.12.57.46,1.14.91,1.7,1.37,6.65-3.55,13.3-7.09,20.74-11.07Z"/>
        <path class="cls-5" d="M171.72,144.46c0,13.75.02,26.33-.02,38.92,0,2.67.06,5.41-.47,8-1.02,5.03-3.93,7.95-9.49,8.2-5.68.27-9.14-2.2-10.82-7.37-.58-1.8-.9-3.77-.89-5.65.16-30.62-.84-61.32.94-91.85,2.09-35.8,39.43-58.38,73.05-45.8,23.07,8.63,37.16,31.73,35.06,57.45-1.84,22.54-20.72,43.49-43.5,47.44-13.73,2.39-27.13,1.04-39.22-6.87-1.09-.71-2.31-1.24-4.64-2.47ZM237.39,100.16c-.02-17.86-14.94-32.88-32.78-33-17.35-.12-32.74,15.45-32.84,33.21-.09,17.62,15.18,32.71,33.08,32.71,18.18,0,32.56-14.55,32.54-32.92Z"/>
        <path class="cls-5" d="M315.14,155.27c-10.34,0-20.69.07-31.03-.02-7.25-.07-11.7-4.26-11.59-10.62.1-5.88,4.66-9.83,11.74-9.86,17.62-.07,35.25,0,52.87-.06,2.86,0,5.77-.12,8.57-.62,6.66-1.19,10.41-5.84,9.93-11.89-.44-5.51-5-9.7-11.41-10.06-4.78-.27-9.58-.11-14.36-.15-8.43-.08-16.86-.11-25.28-.27-18.3-.34-32.16-14.53-32.08-32.76.08-17.16,14.47-31.25,32.26-31.35,19.73-.11,39.46-.07,59.19.03,2.62.01,6-.04,7.69,1.46,2.59,2.29,5.4,5.85,5.5,8.96.1,2.79-2.79,6.44-5.37,8.32-2.19,1.6-5.81,1.61-8.81,1.63-17.05.14-34.1.02-51.15.11-3.04.02-6.13.31-9.1.94-5.06,1.07-7.92,4.39-8.47,9.58-.57,5.32,2.08,8.99,6.63,10.95,2.71,1.17,5.92,1.55,8.92,1.59,11.87.18,23.75.06,35.63.09,17.55.04,31.27,13.87,32.39,30.71,1.2,17.97-15.54,33.38-31.64,33.3-10.34-.05-20.69,0-31.03,0Z"/>
        <path class="cls-5" d="M748.87,120.42c0,7.47.09,14.95-.02,22.42-.12,7.92-3.44,11.68-10.19,11.88-6.83.2-10.81-3.81-10.97-11.83-.23-11.49.13-23-.12-34.5-.27-12.71-2.47-24.64-12.83-33.79-19.85-17.52-43.74-5.34-50.94,16.97-1.95,6.05-2,12.83-2.21,19.3-.34,10.72,0,21.46-.14,32.19-.1,7.6-3.31,11.43-9.6,12.06-6.08.61-10.6-2.58-11.13-8.91-.62-7.43-.48-14.92-.48-22.39,0-8.81-.21-17.65.35-26.43,1.91-29.83,25.89-52.15,55.47-51.94,26.57.18,51.1,24,52.62,51.39.44,7.83.07,15.71.07,23.57.04,0,.08,0,.13,0Z"/>
        <path class="cls-5" d="M822.85,114.79c6.03-14.69,11.6-28.25,17.17-41.82,2.69-6.55,5.29-13.13,8.09-19.63,3.05-7.08,9.16-9.93,15.15-7.24,5.93,2.65,7.96,8.52,5.09,15.53-11.52,28.17-22.96,56.37-34.87,84.37-1.44,3.38-5.16,6.81-8.61,8.08-5.44,2-10.31-1.14-12.74-7.01-11.85-28.64-23.62-57.32-35.32-86.03-2.65-6.5-.33-12.39,5.45-14.94,5.78-2.55,12.15.02,14.96,6.69,7.67,18.16,15.07,36.43,22.58,54.66.84,2.04,1.69,4.08,3.04,7.35Z"/>
        <path class="cls-5" d="M435.96,58.97c0-15.71-.07-31.43.04-47.14.05-7.16,3.06-11.02,8.55-11.68,7.21-.86,11.31,2.24,12.32,9.5.29,2.07.25,4.2.25,6.31.02,25.49-.01,50.98.04,76.47,0,3.83.08,7.68.54,11.47,2.11,17.27,13.8,28.18,31.14,29.98,3.5.37,7.7,1.92,10.01,4.39,5.27,5.63,2.25,14.65-5.41,16.04-5.12.93-10.75.72-15.88-.34-23.71-4.88-41.52-27.1-41.59-51.3-.04-14.56,0-29.13,0-43.7Z"/>
        <path class="cls-5" d="M417.3,101.56c0,13.6.29,27.21-.2,40.79-.13,3.65-1.68,8.21-4.22,10.63-5.25,5-13.84,1.96-16.04-5.05-.62-1.97-.88-4.13-.88-6.21-.06-27.2-.07-54.4-.02-81.6.01-7.64,2.6-11.72,7.9-13.08,7.69-1.96,13.23,2.79,13.4,11.99.22,11.87.06,23.75.07,35.63,0,2.3,0,4.6,0,6.9Z"/>
        <path class="cls-5" d="M901.05,100.69c0,13.76.29,27.53-.2,41.27-.13,3.7-1.68,8.3-4.22,10.75-5.25,5.06-13.84,1.98-16.04-5.11-.62-1.99-.88-4.18-.88-6.28-.06-27.52-.07-55.03-.02-82.55.01-7.73,2.6-11.86,7.9-13.23,7.69-1.99,13.23,2.82,13.4,12.13.22,12.01.06,24.03.07,36.04,0,2.33,0,4.65,0,6.98Z"/>
        <path class="cls-5" d="M406.88,38.6c-6.85.03-11.21-3.93-11.16-10.14.05-6.61,3.86-10.95,9.71-11.07,6.75-.14,11.44,3.89,11.55,9.9.12,6.66-4,11.28-10.09,11.31Z"/>
      </g>
    </g>
    <g id="MOON">
      <circle class="cls-1" cx="568.31" cy="100.62" r="59.78"/>
      <path class="cls-1" d="M608.98,58.6s4.44-.6,5.81-.43,6.45,6.88,6.54,7.61.43,5.73-.94,7.61-11.41-14.79-11.41-14.79Z"/>
      <path class="cls-2" d="M612.96,60.72s1.57-.19,2.76.45,3.91,4.55,4.01,5.29-.03,2.47-.16,3.11-2.95-6.15-7.12-8.59l.51-.26Z"/>
      <path class="cls-3" d="M588.74,59.62s-.15-1.32,1.55-2.24,3.52-.11,3.52-.11c0,0-2.22-2.12-4.62-.93,0,0-1.74,1.24-.45,3.28Z"/>
      <path class="cls-1" d="M515,74.46s-1.03-6.07-.77-6.41-.43-.64,5.77-8.29c0,0,1.37-1.41,2.39-1.71s4.49,0,4.49,0l-11.88,16.41Z"/>
      <path class="cls-1" d="M554.83,42.83s.9-3.03,1.88-3.8,3.38-2.01,3.38-2.01c0,0,4.1-.09,8.76.21,0,0,1.5.3,4.15,4.23s-18.16,1.37-18.16,1.37Z"/>
      <path class="cls-1" d="M626.59,106.21s3.5,1.71,4.06,4.36-4.06,11.84-4.06,11.84c0,0-.98.6-4.23,1.5s4.23-17.69,4.23-17.69Z"/>
      <path class="cls-1" d="M548.08,155.83l.56,2.31s1.75,2.74,2.74,3.25,5.56,1.2,7.18,1.28,3.8.04,5.17-1.15,1.5-5.21,1.5-5.21l-17.14-.47Z"/>
      <path class="cls-1" d="M512.09,119.5s-.56,1.07-.6,2.22.09,2.56.6,3.76,2.27,4.87,2.27,4.87c0,0,2.05,2.82,3.42,3.33s3.03.3,3.03.3l-8.51-14.49h-.21Z"/>
      <ellipse class="cls-7" cx="521.01" cy="93.45" rx="6.84" ry="4.87" transform="translate(156.23 477.02) rotate(-56.61)"/>
      <path class="cls-6" d="M516.7,91.33s2.98-4.97,7.24-3.91,1.09,8.72,1.09,8.72c0,0-.36-4.4-2.4-5.13-2.79-.99-5.93.32-5.93.32Z"/>
      <path class="cls-3" d="M514.32,90.69s-2.92,6.65.87,9.93,9.74-1.76,9.74-1.76c0,0-5.35,6.47-10.74,3.3-5.39-3.17,1.25-14.07.13-11.48Z"/>
      <path class="cls-3" d="M523.49,85.88s1.7-.16,2.92.96,2.18,3.17,1.6,6.8c0,0,1.31-2.53,1.19-4.46s-1.41-2.31-2.21-2.85-3.49-.45-3.49-.45Z"/>
      <ellipse class="cls-4" cx="537.44" cy="118.74" rx="7.95" ry="10.36" transform="translate(142.5 502.1) rotate(-56.61)"/>
      <path class="cls-2" d="M528.19,119.67s1.5-2.31,3.89-3.38c2.39-1.07,6.11-.38,6.11-.38,0,0,4.66.68,8.03,6.97l.43.94s3.16-9.15-7.44-13.42c0,0-3.03-1.54-6.28,0s-4.44,4.06-4.44,4.06c0,0-1.37,2.82-.3,5.21Z"/>
      <path class="cls-8" d="M525.04,122.2s2.86,10.39,16.11,11.84c0,0,11.28-.26,11.28-12.65,0,0-2.56,9.62-10.94,9.83s-16.45-9.02-16.45-9.02Z"/>
      <path class="cls-3" d="M538.14,73.99s-1.6-6.03,5.06-9.81c6.67-3.78,11.63-1.35,11.63-1.35,0,0-3.36-3.85-12.01.06,0,0-6.99,4.23-4.68,11.09Z"/>
      <ellipse class="cls-7" cx="547.1" cy="68.76" rx="7.06" ry="4.68" transform="translate(25.47 247.51) rotate(-26.08)"/>
      <path class="cls-3" d="M541.22,71.36s2.37,1.92,7.76-.32,3.52-6.53,3.52-6.53c-.04-.33,4.89,4.82-2.68,8.39-8.4,3.96-9.37-2.16-9.37-2.16l.78.62Z"/>
      <ellipse class="cls-4" cx="592.02" cy="124.08" rx="13.63" ry="14.71" transform="translate(12.96 298.93) rotate(-28.64)"/>
      <path class="cls-2" d="M580.86,131.9s-.51-10.51,10.34-13.76,14.56,4.75,14.56,4.75c0,0-2.63-16.41-19.68-12.7,0,0-14.62,5.04-5.21,21.71Z"/>
      <path class="cls-8" d="M572.5,128.86s2.82,17.5,21.41,17.05c18.59-.45,17.76-21.84,17.76-21.84,0,0-3.17,17.33-17.37,18.12-17.18.96-21.8-13.33-21.8-13.33Z"/>
      <path class="cls-8" d="M546.11,145.93s3.46-4.24,7.74-2.49,5.98,2.95,8.68,7.91c0,0-.43-5.46-5.64-8.33-5.21-2.87-9.19.85-9.19.85l-1.58,2.06Z"/>
      <path class="cls-8" d="M559.36,150.83s-.21,2.52-5.3,1.92-5.73-4.7-5.73-4.7c0,0-.09,6.15,6.33,7.22,6.41,1.07,4.7-4.44,4.7-4.44Z"/>
      <ellipse class="cls-4" cx="552.23" cy="92.69" rx="2.14" ry="2.97" transform="translate(242.83 559.4) rotate(-65.99)"/>
      <path class="cls-2" d="M549.7,93.26s.43-1.92,2.18-1.92,2.56.64,2.56.64c0,0-1.41-2.56-4.36-1.24,0,0-1.28.47-.38,2.52Z"/>
      <path class="cls-8" d="M550.73,95.53s1.05.75,3.31.13,1.99-2.39,1.99-2.39c0,0,.53,2.05-1.32,2.97s-3.97-.71-3.97-.71Z"/>
      <path class="cls-2" d="M513.68,121.72s-.3,3.3,1.33,5.99,3.59,4.29,3.59,4.29c0,0,.08-3.78-.81-5.99-.9-2.21-3.01-4.3-3.56-4.3h-.54Z"/>
      <path class="cls-8" d="M512.85,120.72s3.94.32,5.61,5.35c1.67,5.03.16,6.64.16,6.64,0,0,.13-1.99-1.22-5.99-1.35-4.01-4.55-5.99-4.55-5.99Z"/>
      <path class="cls-2" d="M516.28,69.8s.47-4.15,2.56-6.15,5.13-3.33,5.13-3.33l-7.69,10.34v-.85Z"/>
      <path class="cls-2" d="M557.34,41.48s1.44-2.5,3.05-2.63,5.96-.64,7.53,0,3.37,2.08,3.37,2.08l-13.94.9v-.36Z"/>
      <path class="cls-2" d="M627.44,108.29s1.76,1.12,2.05,2.34-3.43,9.55-3.59,9.84-1.25.77-1.67.87,2.12-4.81,3.21-13.05Z"/>
      <path class="cls-2" d="M550.43,157.63s6.07,1.97,10.47,1.97c0,0,.02.29-.92.81s-6.8-.54-7.56-1.13-1.99-1.64-1.99-1.64Z"/>
      <path class="cls-2" d="M576.93,89.05s-.99,3.05,1.38,5.29,7.31.99,7.31.99c0,0-5.55,3.3-8.08.22-2.53-3.08-.61-6.51-.61-6.51Z"/>
      <path class="cls-4" d="M579.33,90.01s.67.29,2.37,1.6.51,2.79.51,2.79c0,0,1.73-.51,1.73-3.14,0,0-2.12-2.96-4.62-1.25Z"/>
      <path class="cls-4" d="M585.07,71.23s-.43,2.46.43,3.29,4.47-.56,4.47-.56c0,0-2.48.19-3.36-.11s-1.54-2.63-1.54-2.63Z"/>
      <path class="cls-4" d="M607.27,77.6s-.35,2.39.43,3.29c1.15,1.34,4.54-.67,4.3-1.09.08.33-2.6,1.2-3.63.26-.68-.63-1.09-2.46-1.09-2.46Z"/>
      <path class="cls-4" d="M587.33,69.78s.45-.6,1.26.15.94.9.94.9c0,0-.34-1.77-.9-1.88s-.2,0-.2,0c0,0-.42-.28-.87.17s-.24.66-.24.66Z"/>
      <ellipse class="cls-7" cx="570.2" cy="52.97" rx="4.3" ry="2.61"/>
      <path class="cls-3" d="M570.8,50.46s1.54.35,1.7,2.08-2.5,2.5-2.5,2.5l-.96.38s1.83.38,2.95,0,2.44-1.06,2.79-2.69-1.73-2.24-2.08-2.28-.9-.26-1.89,0Z"/>
      <path class="cls-3" d="M563.05,55.17s-.99-2.9,2.85-4.83,6.99-1.61,6.99-1.61c0,0-5.1-.67-7.63.96,0,0-3.37,1.41-2.21,5.48Z"/>
      <path class="cls-4" d="M609.6,77.02s1.03-.38,1.54.38.49,1.28.49,1.28c0,0,1.12-1.28.38-2.18s-2.41.51-2.41.51Z"/>
      <path class="cls-4" d="M609.94,96.46s1.96.48,3.05-1.38c0,0,.15,2.24-.98,2.34s-2.06-.96-2.06-.96Z"/>
    </g>
  </g>
</svg>