<svg width="40" height="40" viewBox="0 0 40 40" fill="none" xmlns="http://www.w3.org/2000/svg">
<g clip-path="url(#clip0_2001_21353)">
<path d="M27.5002 36.2501C27.5002 36.5816 27.3685 36.8995 27.1341 37.134C26.8997 37.3684 26.5817 37.5001 26.2502 37.5001H13.7502C13.4187 37.5001 13.1007 37.3684 12.8663 37.134C12.6319 36.8995 12.5002 36.5816 12.5002 36.2501C12.5002 35.9186 12.6319 35.6006 12.8663 35.3662C13.1007 35.1318 13.4187 35.0001 13.7502 35.0001H26.2502C26.5817 35.0001 26.8997 35.1318 27.1341 35.3662C27.3685 35.6006 27.5002 35.9186 27.5002 36.2501ZM33.7502 16.2501C33.7556 18.3339 33.2848 20.3914 32.3739 22.2656C31.4629 24.1397 30.1359 25.781 28.494 27.0641C28.1869 27.2995 27.9378 27.6019 27.7656 27.9482C27.5933 28.2946 27.5026 28.6758 27.5002 29.0626V30.0001C27.5002 30.6631 27.2368 31.299 26.768 31.7679C26.2991 32.2367 25.6632 32.5001 25.0002 32.5001H15.0002C14.3372 32.5001 13.7013 32.2367 13.2324 31.7679C12.7636 31.299 12.5002 30.6631 12.5002 30.0001V29.0626C12.4999 28.6804 12.4121 28.3033 12.2433 27.9604C12.0746 27.6175 11.8294 27.3178 11.5268 27.0845C9.88896 25.8089 8.56278 24.1775 7.64861 22.3137C6.73444 20.4499 6.25624 18.4026 6.2502 16.3266C6.20958 8.87977 12.2283 2.67821 19.669 2.50008C21.5023 2.4559 23.326 2.77892 25.0326 3.45011C26.7393 4.12131 28.2944 5.12712 29.6065 6.40835C30.9186 7.68958 31.9612 9.22034 32.6728 10.9105C33.3844 12.6007 33.7507 14.4162 33.7502 16.2501ZM25.8846 16.6157C25.7685 16.4995 25.6306 16.4073 25.4789 16.3444C25.3271 16.2815 25.1645 16.2491 25.0002 16.2491C24.8359 16.2491 24.6733 16.2815 24.5215 16.3444C24.3698 16.4073 24.2319 16.4995 24.1158 16.6157L20.0002 20.7329L15.8846 16.6157C15.65 16.3812 15.3319 16.2494 15.0002 16.2494C14.6685 16.2494 14.3504 16.3812 14.1158 16.6157C13.8813 16.8503 13.7495 17.1684 13.7495 17.5001C13.7495 17.8318 13.8813 18.1499 14.1158 18.3845L18.7502 23.0173V28.7501C18.7502 29.0816 18.8819 29.3995 19.1163 29.634C19.3507 29.8684 19.6687 30.0001 20.0002 30.0001C20.3317 30.0001 20.6497 29.8684 20.8841 29.634C21.1185 29.3995 21.2502 29.0816 21.2502 28.7501V23.0173L25.8846 18.3845C26.0008 18.2684 26.093 18.1305 26.1559 17.9788C26.2188 17.827 26.2512 17.6644 26.2512 17.5001C26.2512 17.3358 26.2188 17.1732 26.1559 17.0214C26.093 16.8697 26.0008 16.7318 25.8846 16.6157Z" fill="white"/>
</g>
<defs>
<clipPath id="clip0_2001_21353">
<rect width="40" height="40" fill="white"/>
</clipPath>
</defs>
</svg>
