<?xml version="1.0" encoding="UTF-8"?>
<svg id="Layer_2" data-name="Layer 2" xmlns="http://www.w3.org/2000/svg" viewBox="0 0 927.25 926.72">
  <defs>
    <style>
      .cls-1 {
        fill: #fff;
      }
    </style>
  </defs>
  <g id="Layer_1-2" data-name="Layer 1">
    <path class="cls-1" d="M401.95,747.99c85.98,13.41,157.21,2.32,221.82-42.03,16.22-11.13,30.76-24.69,46.34-36.79,22.22-17.24,45.6-18.23,65.12,2.22,19.82,20.76,17.34,44.76-2.18,64.76-42.9,43.96-94.01,75.16-152.79,93.52-79.99,24.99-160.09,25.91-239.24-2.08-22.41-7.92-38.66-4.02-57.97,8.18-40.68,25.71-82.69,49.46-125.26,71.92-16.17,8.53-35.07,12.78-53.24,16.45-67.75,13.69-115.77-28.61-102.27-96.06,8.43-42.1,22.69-87.19,47.83-120.87,44.74-59.94,49.58-116,35.4-189.81C33.33,245.81,311.74,8.93,574.9,95.98c29.72,9.83,50.12,5.43,75.59-10.88,43.16-27.64,89.3-50.9,135.45-73.44,16.17-7.9,35.93-10.82,54.23-11.57,56.99-2.32,98.21,39.13,84.4,94.1-12.57,50.06-33.55,100.1-60.74,144.02-111.89,180.78-259.56,330.71-417.85,470.8-12.17,10.77-24.33,21.54-44.03,38.98ZM480.88,171.53c-143.2-.28-247.53,74.2-290.12,194.8-43.67,123.67-11.08,243.08,87.11,323.66,16.56,13.59,29.56,14.74,46.08,1.11,133.25-109.93,255.1-231.17,364.86-364.62,14.52-17.65,14.45-31.69-.49-48.97-59.37-68.71-133.83-104.5-207.45-105.96ZM709.72,153.97c20.76,24.15,38.06,44.27,58.75,68.33,22.71-42.14,43.36-80.46,64.01-118.78-3.38-3.28-6.76-6.55-10.14-9.83-38.62,20.67-77.24,41.34-112.62,60.27ZM222.66,769.14c-24.45-23.92-43.28-42.33-66.88-65.42-21.54,42.25-41.6,81.6-61.66,120.95,3.25,2.62,6.5,5.23,9.75,7.85,38.07-20.31,76.14-40.62,118.79-63.37Z"/>
  </g>
</svg>